#!OML:ASF E:\inclinewalkrobotboard\Project 1\Capture day 1\Session 1\subject1.ASF
:FULLY-SPECIFIED
:DEGREES
143
root 7.42622 16.4439 34.2238 -170.281 3.01833 -182.387
lowerback 0.857004 2.84614 -3.68874
upperback 3.25787 3.929 0.661697
thorax 2.58246 1.91018 2.79029
lowerneck -5.50825 1.06987 -3.38655
upperneck 32.3865 -3.47584 5.55304
head 11.5622 -2.59237 2.01888
rclavicle -1.2921e-014 -1.35174e-014
rhumerus -29.9815 -22.3401 -79.1626
rradius 27.0637
rwrist 11.045
rhand -11.6696 -37.9964
rfingers 7.12502
rthumb 14.3754 -67.4786
lclavicle -1.2921e-014 -1.35174e-014
lhumerus -32.2305 9.48078 83.0817
lradius 18.2887
lwrist -29.8334
lhand -27.2533 -21.5411
lfingers 7.12502
lthumb -0.664757 8.4376
rfemur -1.47176 2.74683 22.139
rtibia 11.3756
rfoot -21.8361 0.522039
rtoes -14.017
lfemur -55.9657 -6.1115 -19.0613
ltibia 44.5105
lfoot -23.4845 5.86093
ltoes -63.0146
144
root 7.4317 16.4237 34.0622 -170.336 3.30677 -182.363
lowerback 1.02493 2.84408 -3.72917
upperback 3.38141 3.93283 0.648573
thorax 2.61444 1.91322 2.79426
lowerneck -5.31471 1.1106 -3.55378
upperneck 32.2589 -3.36561 5.5086
head 11.4654 -2.56969 2.04503
rclavicle 6.75868e-015 -9.93923e-015
rhumerus -28.8652 -20.6777 -80.4649
rradius 28.1348
rwrist 10.0063
rhand -11.2452 -38.2065
rfingers 7.12502
rthumb 14.7843 -67.6592
lclavicle 6.75868e-015 -9.93923e-015
lhumerus -32.7929 10.7457 82.202
lradius 17.7248
lwrist -30.1608
lhand -27.0344 -21.2592
lfingers 7.12502
lthumb -0.453271 8.72009
rfemur -0.731886 2.68723 22.1351
rtibia 11.2629
rfoot -22.0381 0.512406
rtoes -15.6312
lfemur -57.1706 -6.01939 -18.584
ltibia 42.8594
lfoot -22.4934 5.86701
ltoes -63.7222
145
root 7.43448 16.4014 33.8891 -170.437 3.53773 -182.439
lowerback 1.20083 2.82011 -3.84719
upperback 3.51013 3.9091 0.611958
thorax 2.6464 1.90113 2.81697
lowerneck -5.43559 1.24114 -3.67813
upperneck 32.3851 -3.15513 5.47196
head 11.5276 -2.49392 2.07704
rclavicle -6.95746e-015 -1.59028e-015
rhumerus -27.8258 -18.9512 -81.6951
rradius 29.1184
rwrist 8.9909
rhand -11.4774 -38.4712
rfingers 7.12502
rthumb 14.5606 -67.9402
lclavicle -6.95746e-015 -1.59028e-015
lhumerus -33.4054 12.1822 81.1838
lradius 17.1084
lwrist -30.8736
lhand -26.742 -20.9781
lfingers 7.12502
lthumb -0.170897 9.00161
rfemur 0.158865 2.63709 22.0196
rtibia 11.0693
rfoot -22.2379 0.766412
rtoes -15.4302
lfemur -58.1929 -6.0795 -18.2066
ltibia 41.8773
lfoot -21.8573 5.82886
ltoes -64.5191
146
root 7.43734 16.3767 33.7117 -170.517 3.85254 -182.503
lowerback 1.44519 2.8601 -3.96001
upperback 3.59376 3.96654 0.49952
thorax 2.59265 1.93276 2.75304
lowerneck -5.70754 1.36249 -3.52945
upperneck 32.5706 -2.97362 5.36037
head 11.6439 -2.40205 2.02953
rclavicle 1.51076e-014 -3.97569e-016
rhumerus -27.0101 -17.3233 -82.8745
rradius 30.1953
rwrist 8.07594
rhand -12.1992 -38.2141
rfingers 7.12502
rthumb 13.8651 -67.732
lclavicle 1.51076e-014 -3.97569e-016
lhumerus -34.0045 13.3315 80.075
lradius 16.501
lwrist -31.7452
lhand -26.4171 -20.6824
lfingers 7.12502
lthumb 0.142908 9.29731
rfemur 0.893623 2.73176 21.927
rtibia 11.1773
rfoot -22.3378 1.14696
rtoes -14.4987
lfemur -59.0988 -6.15583 -17.7276
ltibia 41.2698
lfoot -21.4375 5.93768
ltoes -65.15
147
root 7.44362 16.3516 33.532 -170.549 4.31535 -182.353
lowerback 1.69994 2.98675 -3.96059
upperback 3.68164 4.13837 0.425579
thorax 2.53347 2.02427 2.66487
lowerneck -5.66339 1.37577 -3.3983
upperneck 32.425 -2.92058 5.30452
head 11.5715 -2.3594 1.99194
rclavicle -1.59028e-014 2.38542e-015
rhumerus -26.1998 -16.1138 -83.8391
rradius 31.2485
rwrist 7.43966
rhand -12.2795 -37.352
rfingers 7.12502
rthumb 13.7877 -66.8751
lclavicle -1.59028e-014 2.38542e-015
lhumerus -34.5445 14.1985 79.0551
lradius 16.0436
lwrist -32.5624
lhand -25.915 -20.1851
lfingers 7.12502
lthumb 0.627828 9.79376
rfemur 1.42781 3.16705 22.1247
rtibia 11.5528
rfoot -22.1276 1.59364
rtoes -12.4257
lfemur -59.7585 -6.23722 -16.7689
ltibia 40.4619
lfoot -20.7716 6.35441
ltoes -65.903
148
root 7.44695 16.3269 33.34 -170.665 4.97512 -182.205
lowerback 1.98185 3.19449 -3.94736
upperback 3.80282 4.42191 0.324941
thorax 2.48934 2.173 2.53926
lowerneck -5.32044 1.31289 -3.49218
upperneck 32.0297 -2.97691 5.43396
head 11.3498 -2.37383 2.05117
rclavicle -1.39149e-014 7.95139e-016
rhumerus -25.4839 -14.9892 -84.7112
rradius 32.2181
rwrist 6.67206
rhand -12.2322 -36.7725
rfingers 7.12502
rthumb 13.8333 -66.2925
lclavicle -1.39149e-014 7.95139e-016
lhumerus -35.0617 15.1353 77.9648
lradius 15.5712
lwrist -33.6029
lhand -25.443 -20.0077
lfingers 7.12502
lthumb 1.0837 9.96934
rfemur 2.07314 3.71581 22.2699
rtibia 11.9026
rfoot -21.7836 1.91176
rtoes -11.5878
lfemur -60.0639 -6.24836 -15.7713
ltibia 39.7287
lfoot -19.9263 6.91716
ltoes -65.9793
149
root 7.44262 16.3059 33.1315 -170.858 5.71654 -182.084
lowerback 2.24625 3.39694 -3.90911
upperback 3.97446 4.70561 0.207347
thorax 2.51218 2.32255 2.38427
lowerneck -5.22453 1.27481 -3.46867
upperneck 31.8208 -2.99104 5.42991
head 11.2484 -2.36859 2.04438
rclavicle -1.39149e-015 7.95139e-015
rhumerus -24.8278 -13.8219 -85.5629
rradius 33.1227
rwrist 5.82524
rhand -12.2435 -36.3454
rfingers 7.12502
rthumb 13.8224 -65.8661
lclavicle -1.39149e-015 7.95139e-015
lhumerus -35.5464 16.1483 76.8402
lradius 15.0659
lwrist -34.6844
lhand -25.0745 -19.848
lfingers 7.12502
lthumb 1.43961 10.1269
rfemur 2.86425 3.96949 22.2322
rtibia 12.2333
rfoot -21.6035 2.05274
rtoes -13.7028
lfemur -60.2901 -5.87351 -15.1849
ltibia 39.7367
lfoot -19.341 7.1797
ltoes -66.146
150
root 7.4441 16.2872 32.934 -170.712 5.98262 -181.955
lowerback 2.35677 3.39504 -4.01209
upperback 4.05828 4.70888 0.197894
thorax 2.53059 2.32379 2.42761
lowerneck -5.32477 1.30707 -3.3775
upperneck 31.7178 -2.85256 5.25231
head 11.217 -2.29946 1.9784
rclavicle 4.1049e-014 -6.75868e-015
rhumerus -24.0657 -12.6358 -86.3186
rradius 33.8852
rwrist 5.16305
rhand -11.9449 -36.2158
rfingers 7.12502
rthumb 14.1101 -65.7167
lclavicle 4.1049e-014 -6.75868e-015
lhumerus -36.0327 17.8739 75.4497
lradius 14.425
lwrist -36.5325
lhand -24.7186 -19.3461
lfingers 7.12502
lthumb 1.78339 10.6262
rfemur 3.30216 3.93926 22.2823
rtibia 12.6025
rfoot -21.378 1.84551
rtoes -17.0881
lfemur -60.9958 -5.57376 -14.8853
ltibia 40.3296
lfoot -18.9355 7.01328
ltoes -66.5102
151
root 7.43676 16.2807 32.7096 -170.683 6.66122 -181.896
lowerback 2.37175 3.62696 -4.08287
upperback 4.2569 5.04588 0.0346966
thorax 2.71489 2.49368 2.3034
lowerneck -5.3744 1.2113 -3.31664
upperneck 31.4662 -2.93974 5.31671
head 11.134 -2.30194 1.98312
rclavicle 5.80451e-014 -1.03368e-014
rhumerus -23.1872 -12.0477 -87.0161
rradius 34.3074
rwrist 4.94647
rhand -11.8433 -35.8615
rfingers 7.12502
rthumb 14.208 -65.3556
lclavicle 5.80451e-014 -1.03368e-014
lhumerus -36.3118 19.7234 73.8527
lradius 13.6493
lwrist -39.0043
lhand -24.629 -19.0443
lfingers 7.12502
lthumb 1.86986 10.9273
rfemur 3.90332 4.03084 22.0425
rtibia 12.8934
rfoot -20.7632 2.24279
rtoes -20.5556
lfemur -60.8697 -5.26359 -14.6559
ltibia 40.3669
lfoot -18.0698 7.41501
ltoes -66.9097
152
root 7.42054 16.2857 32.4831 -170.586 7.2655 -181.779
lowerback 2.47148 3.74984 -4.06624
upperback 4.37698 5.22472 -0.0756546
thorax 2.78389 2.58774 2.17746
lowerneck -5.10589 1.1991 -3.36519
upperneck 31.0883 -2.89163 5.35212
head 10.931 -2.27076 2.0108
rclavicle 3.37934e-015 -7.95139e-015
rhumerus -22.1666 -11.6048 -87.5946
rradius 34.0901
rwrist 5.2797
rhand -12.0192 -34.9026
rfingers 7.12502
rthumb 14.0385 -64.4085
lclavicle 3.37934e-015 -7.95139e-015
lhumerus -36.799 21.415 72.4469
lradius 13.1048
lwrist -40.796
lhand -24.727 -19.0646
lfingers 7.12502
lthumb 1.77519 10.9077
rfemur 4.3847 4.102 21.7482
rtibia 13.1912
rfoot -19.7814 2.99435
rtoes -23.2617
lfemur -60.4514 -4.87672 -14.6599
ltibia 40.5338
lfoot -16.7154 7.74714
ltoes -67.1485
153
root 7.4022 16.3033 32.2543 -170.251 7.85945 -181.458
lowerback 2.50488 3.87717 -3.88099
upperback 4.42727 5.402 -0.143017
thorax 2.82822 2.68331 2.00448
lowerneck -4.98468 1.18069 -3.20241
upperneck 30.7455 -2.8167 5.20827
head 10.7678 -2.21513 1.93862
rclavicle -8.24956e-015 5.1684e-015
rhumerus -21.2139 -11.3131 -88.1056
rradius 33.8731
rwrist 5.64982
rhand -12.0977 -34.38
rfingers 7.12502
rthumb 13.9629 -63.8911
lclavicle -8.24956e-015 5.1684e-015
lhumerus -37.3419 23.1595 70.9867
lradius 12.5576
lwrist -42.7013
lhand -25.1758 -19.2333
lfingers 7.12502
lthumb 1.3418 10.7422
rfemur 4.52981 4.178 21.6098
rtibia 13.6511
rfoot -18.4502 4.24505
rtoes -24.2306
lfemur -60.9826 -4.15083 -14.8012
ltibia 42.8424
lfoot -16.2687 7.64237
ltoes -67.0459
154
root 7.38899 16.3347 32.0144 -169.862 8.67568 -181.125
lowerback 2.61664 4.1438 -3.80093
upperback 4.39823 5.75438 -0.251793
thorax 2.73273 2.86581 1.83394
lowerneck -4.96385 1.12509 -3.02499
upperneck 30.5177 -2.84427 5.14516
head 10.6763 -2.19867 1.8825
rclavicle 5.26779e-015 8.34896e-015
rhumerus -20.9293 -10.8239 -88.5398
rradius 34.3912
rwrist 5.40367
rhand -11.894 -34.2998
rfingers 7.12502
rthumb 14.1591 -63.7973
lclavicle 5.26779e-015 8.34896e-015
lhumerus -37.9552 24.9913 69.3217
lradius 11.9504
lwrist -44.9823
lhand -25.8865 -19.4336
lfingers 7.12502
lthumb 0.655368 10.5451
rfemur 4.62072 4.49562 21.4726
rtibia 14.1155
rfoot -16.7309 5.52916
rtoes -25.1806
lfemur -61.1553 -3.34059 -14.8693
ltibia 44.7799
lfoot -16.0289 7.67309
ltoes -66.7239
155
root 7.37133 16.3806 31.7578 -169.522 9.44781 -180.967
lowerback 2.70537 4.32273 -3.93729
upperback 4.40745 5.99319 -0.338911
thorax 2.67587 2.98483 1.80868
lowerneck -4.88236 1.11201 -3.04316
upperneck 30.2388 -2.77073 5.07829
head 10.5494 -2.15884 1.87029
rclavicle -2.65378e-014 3.37934e-015
rhumerus -20.8156 -10.1806 -88.8414
rradius 34.8494
rwrist 5.14593
rhand -11.7664 -34.0441
rfingers 7.12502
rthumb 14.2821 -63.5329
lclavicle -2.65378e-014 3.37934e-015
lhumerus -38.4843 26.4637 68.1352
lradius 11.591
lwrist -46.1839
lhand -26.0721 -19.5968
lfingers 7.12502
lthumb 0.476083 10.3824
rfemur 4.84929 4.89813 21.1265
rtibia 14.3952
rfoot -14.6422 6.48129
rtoes -27.3427
lfemur -60.9543 -2.93328 -14.9763
ltibia 45.9619
lfoot -16.4837 7.86849
ltoes -66.5362
